<?xml version="1.0" standalone="no"?><!DOCTYPE svg PUBLIC "-//W3C//DTD SVG 1.1//EN" "http://www.w3.org/Graphics/SVG/1.1/DTD/svg11.dtd"><svg height="1024" node-id="1" sillyvg="true" template-height="1024" template-width="1024" version="1.1" viewBox="0 0 1024 1024" width="1024" xmlns="http://www.w3.org/2000/svg" xmlns:xlink="http://www.w3.org/1999/xlink"><defs node-id="41"><linearGradient gradientUnits="userSpaceOnUse" id="SVGID_1_" node-id="7" spreadMethod="pad" x1="210.1226" x2="723.6296" y1="432.4802" y2="945.9871"><stop offset="0" stop-color="#39c2ff"></stop><stop offset="1" stop-color="#236ffb"></stop></linearGradient><linearGradient gradientUnits="userSpaceOnUse" id="SVGID_2_" node-id="11" spreadMethod="pad" x1="324.2953" x2="837.8022" y1="318.3075" y2="831.8145"><stop offset="0" stop-color="#39c2ff"></stop><stop offset="1" stop-color="#236ffb"></stop></linearGradient><linearGradient gradientUnits="userSpaceOnUse" id="SVGID_3_" node-id="23" spreadMethod="pad" x1="620.8588" x2="620.8588" y1="184.2741" y2="666.8101"><stop offset="0" stop-color="#39c2ff"></stop><stop offset="1" stop-color="#236ffb" stop-opacity="0"></stop></linearGradient><linearGradient gradientUnits="userSpaceOnUse" id="SVGID_4_" node-id="27" spreadMethod="pad" x1="620.8588" x2="620.8588" y1="184.2741" y2="666.8101"><stop offset="0" stop-color="#39c2ff"></stop><stop offset="1" stop-color="#236ffb" stop-opacity="0"></stop></linearGradient><linearGradient gradientTransform="matrix(1.1591 0.129 0.129 1.1591 -346.6596 -262.3566)" gradientUnits="userSpaceOnUse" id="SVGID_5_" node-id="35" spreadMethod="pad" x1="499.0216" x2="322.3272" y1="288.8758" y2="473.5414"><stop offset="0" stop-color="#236ffb"></stop><stop offset="1" stop-color="#236ffb" stop-opacity="0"></stop></linearGradient></defs><g node-id="149"><g node-id="152"><path d="M 136.00 843.10 C 136.00 866.80 155.20 886.10 179.00 886.10 L 781.80 886.10 C 805.50 886.10 824.80 866.90 824.80 843.10 L 824.80 544.50 L 136.00 544.50 L 136.00 843.10 Z" fill="url(#SVGID_1_)" fill-rule="nonzero" group-id="1,4" node-id="80" stroke="none" target-height="341.59998" target-width="688.8" target-x="136" target-y="544.5"></path><path d="M 781.70 410.60 L 178.90 410.60 C 155.20 410.60 135.90 429.80 135.90 453.60 L 135.90 513.00 L 824.60 513.00 L 824.60 453.60 C 824.70 429.80 805.50 410.60 781.70 410.60 Z" fill="url(#SVGID_2_)" fill-rule="nonzero" group-id="1,4" node-id="82" stroke="none" target-height="102.399994" target-width="688.80005" target-x="135.9" target-y="410.6"></path></g><g node-id="153"><path d="M 220.30 461.80 C 220.30 473.73 210.63 483.40 198.70 483.40 C 186.77 483.40 177.10 473.73 177.10 461.80 C 177.10 449.87 186.77 440.20 198.70 440.20 C 210.63 440.20 220.30 449.87 220.30 461.80 Z" fill="#003faf" fill-opacity="0.2" fill-rule="nonzero" group-id="1,5" node-id="87" stroke="none" target-height="43.19998" target-width="43.199997" target-x="177.1" target-y="440.2"></path></g><g node-id="154"><path d="M 280.00 461.80 C 280.00 473.73 270.33 483.40 258.40 483.40 C 246.47 483.40 236.80 473.73 236.80 461.80 C 236.80 449.87 246.47 440.20 258.40 440.20 C 270.33 440.20 280.00 449.87 280.00 461.80 Z" fill="#003faf" fill-opacity="0.2" fill-rule="nonzero" group-id="1,6" node-id="92" stroke="none" target-height="43.19998" target-width="43.199997" target-x="236.8" target-y="440.2"></path></g><g node-id="155"><path d="M 338.30 461.80 C 338.30 473.73 328.63 483.40 316.70 483.40 C 304.77 483.40 295.10 473.73 295.10 461.80 C 295.10 449.87 304.77 440.20 316.70 440.20 C 328.63 440.20 338.30 449.87 338.30 461.80 Z" fill="#003faf" fill-opacity="0.2" fill-rule="nonzero" group-id="1,7" node-id="97" stroke="none" target-height="43.19998" target-width="43.19998" target-x="295.1" target-y="440.2"></path></g><g node-id="156"><path d="M 453.20 831.30 C 451.60 831.30 450.00 831.10 448.40 830.70 C 438.40 828.10 432.50 817.90 435.10 807.90 L 487.80 607.60 C 490.40 597.60 500.70 591.70 510.60 594.30 C 520.60 596.90 526.50 607.10 523.90 617.10 L 471.20 817.40 C 469.10 825.80 461.50 831.30 453.20 831.30 Z" fill="#f2f2f2" fill-opacity="0.9" fill-rule="nonzero" group-id="1,8" node-id="102" stroke="none" target-height="239.59998" target-width="94" target-x="432.5" target-y="591.7"></path></g><g node-id="157"><path d="M 397.30 800.00 C 392.10 800.00 387.00 797.90 383.30 793.70 L 318.40 720.20 C 311.90 712.80 312.20 701.60 319.20 694.70 L 392.70 621.20 C 400.00 613.90 411.80 613.90 419.10 621.20 C 426.40 628.50 426.40 640.30 419.10 647.60 L 358.00 708.60 L 411.30 769.00 C 418.10 776.70 417.40 788.50 409.60 795.30 C 406.10 798.40 401.60 800.00 397.30 800.00 Z" fill="#f2f2f2" fill-opacity="0.9" fill-rule="nonzero" group-id="1,9" node-id="107" stroke="none" target-height="186.09998" target-width="114.5" target-x="311.9" target-y="613.9"></path></g><path d="M 554.70 800.00 C 549.90 800.00 545.10 798.20 541.50 794.50 C 534.20 787.20 534.20 775.40 541.50 768.10 L 602.60 707.00 L 549.30 646.60 C 542.50 638.90 543.20 627.10 551.00 620.30 C 558.70 613.50 570.50 614.20 577.30 622.00 L 642.20 695.50 C 648.70 702.90 648.40 714.10 641.40 721.00 L 567.90 794.50 C 564.30 798.20 559.50 800.00 554.70 800.00 Z" fill="#f2f2f2" fill-opacity="0.9" fill-rule="nonzero" group-id="1,10" node-id="112" stroke="none" target-height="186.5" target-width="114.5" target-x="534.2" target-y="613.5"></path></g><g node-id="150"><g node-id="159"><path d="M 274.70 614.80 C 274.70 638.70 294.00 658.00 317.90 658.00 L 923.80 658.00 C 947.70 658.00 967.00 638.70 967.00 614.80 L 967.00 314.60 L 274.70 314.60 L 274.70 614.80 Z" fill="url(#SVGID_3_)" fill-opacity="0.5" fill-rule="nonzero" group-id="2,11" node-id="120" stroke="none" target-height="343.4" target-width="692.3" target-x="274.7" target-y="314.6"></path><path d="M 923.80 180.00 L 317.90 180.00 C 294.00 180.00 274.70 199.30 274.70 223.20 L 274.70 282.90 L 967.00 282.90 L 967.00 223.20 C 967.00 199.30 947.60 180.00 923.80 180.00 Z" fill="url(#SVGID_4_)" fill-opacity="0.5" fill-rule="nonzero" group-id="2,11" node-id="122" stroke="none" target-height="102.899994" target-width="692.3" target-x="274.7" target-y="180"></path></g><g node-id="160"><path d="M 364.80 236.30 C 364.80 248.28 355.08 258.00 343.10 258.00 C 331.12 258.00 321.40 248.28 321.40 236.30 C 321.40 224.32 331.12 214.60 343.10 214.60 C 355.08 214.60 364.80 224.32 364.80 236.30 Z" fill="#236ffb" fill-opacity="0.2" fill-rule="nonzero" group-id="2,12" node-id="127" stroke="none" target-height="43.399994" target-width="43.399994" target-x="321.4" target-y="214.6"></path></g><g node-id="161"><path d="M 424.90 236.30 C 424.90 248.28 415.18 258.00 403.20 258.00 C 391.22 258.00 381.50 248.28 381.50 236.30 C 381.50 224.32 391.22 214.60 403.20 214.60 C 415.18 214.60 424.90 224.32 424.90 236.30 Z" fill="#236ffb" fill-opacity="0.2" fill-rule="nonzero" group-id="2,13" node-id="132" stroke="none" target-height="43.399994" target-width="43.399994" target-x="381.5" target-y="214.6"></path></g><path d="M 483.50 236.30 C 483.50 248.28 473.78 258.00 461.80 258.00 C 449.82 258.00 440.10 248.28 440.10 236.30 C 440.10 224.32 449.82 214.60 461.80 214.60 C 473.78 214.60 483.50 224.32 483.50 236.30 Z" fill="#236ffb" fill-opacity="0.2" fill-rule="nonzero" group-id="2,14" node-id="137" stroke="none" target-height="43.399994" target-width="43.399994" target-x="440.1" target-y="214.6"></path></g><g node-id="151"><path d="M 283.20 170.30 L 108.90 344.70 L 66.50 302.30 L 240.90 128.00 Z" fill="url(#SVGID_5_)" fill-rule="nonzero" group-id="3" node-id="143" stroke="none" target-height="216.70001" target-width="216.70001" target-x="66.5" target-y="128"></path><g node-id="163"><path d="M 198.29 170.56 L 240.64 128.21 L 283.00 170.56 L 240.64 212.92 Z" fill="#236ffb" fill-rule="nonzero" group-id="3,15" node-id="147" stroke="none" target-height="84.71059" target-width="84.7106" target-x="198.28561" target-y="128.20619"></path></g></g></svg>