<?xml version="1.0" standalone="no"?><!DOCTYPE svg PUBLIC "-//W3C//DTD SVG 1.1//EN" "http://www.w3.org/Graphics/SVG/1.1/DTD/svg11.dtd"><svg t="1726652255953" class="icon" viewBox="0 0 1024 1024" version="1.1" xmlns="http://www.w3.org/2000/svg" p-id="2472" xmlns:xlink="http://www.w3.org/1999/xlink" width="200" height="200"><path d="M145.898667 98.261333L103.168 125.056l22.741333 320.234667L154.325333 501.333333l-28.416 0.256 15.424 295.701334 43.328 149.781333 359.061334-71.402667v-67.797333l60.394666 58.24 281.493334-51.797333 10.816-307.84-109.184-46.528 112.298666-8.704 13.696-339.157334-321.962666-6.570666-47.744 21.866666 0.192-21.866666z" fill="#0B0B0B" p-id="2473"></path><path d="M440.085333 750.272L175.808 797.290667 161.962667 562.773333l279.466666-20.117333zM747.392 707.285333l-145.557333 27.584-3.498667-199.573333 149.056-14.421333zM445.098667 426.005333l-285.952 21.184-9.92-348.928 302.848 7.530667zM740.949333 408.832l-143.786666 9.536-5.888-312.853333 156.117333 3.178666z" fill="#FFFFFF" opacity=".5" p-id="2474"></path><path d="M547.136 878.08L181.653333 950.762667 158.528 559.573333l388.608-27.968z" fill="#FFFF2C" opacity=".8" p-id="2475"></path><path d="M888.32 816.832l-286.997333 52.821333-5.909334-337.322666 303.936-29.397334z" fill="#752DFF" opacity=".8" p-id="2476"></path><path d="M547.136 479.445333L157.674667 512.234667 145.813333 94.698667l401.322667 7.36z" fill="#FF2814" opacity=".8" p-id="2477"></path><path d="M901.44 453.312l-305.194667 23.68-7.04-373.866667 326.101334 6.677334z" fill="#6DFF4F" opacity=".8" p-id="2478"></path></svg>